<svg width="113" height="165" viewBox="0 0 113 165" fill="none" xmlns="http://www.w3.org/2000/svg">
<path d="M113 63.8351L54.3193 94.7614V164.94L104.674 126.481L113 63.8351Z" fill="#F6851F"/>
<path d="M39.6491 96.3474L7.53333 80.0912L12.6877 119.344L39.6491 140.358V96.3474Z" fill="#F15C3B"/>
<path d="M47.9754 41.2351L0 59.8702L47.9754 82.8667L97.1404 59.8702L47.9754 41.2351Z" fill="#FABA14"/>
<path d="M22.6 29.3404C13.7552 21.2323 13.4807 0 13.4807 0C13.4807 0 19.0161 3.18201 22.6 5.15439C28.122 8.19333 32.3315 8.31789 36.8737 12.6877C44.2146 19.75 45.5965 37.2702 45.5965 37.2702C45.5965 37.2702 29.6026 35.7596 22.6 29.3404Z" fill="#C9D52B"/>
<path d="M53.5263 24.979C50.5424 28.892 50.7509 37.2702 50.7509 37.2702C50.7509 37.2702 58.2948 36.2452 62.2491 33.7018C69.0172 29.3486 72.5579 15.8597 72.5579 15.8597C72.5579 15.8597 67.9274 17.7037 65.0246 19.0316C60.4273 21.1346 56.5918 20.959 53.5263 24.979Z" fill="#C9D52B"/>
</svg>
